<mxfile host="app.diagrams.net" modified="2021-12-12T18:26:06.329Z" agent="5.0 (Windows)" etag="Lh_m6gjZz_vSTmh79cf-" version="15.9.4" type="github" pages="2">
  <diagram id="kgpKYQtTHZ0yAKxKKP6v" name="Page-1">
    <mxGraphModel dx="1304" dy="562" grid="1" gridSize="10" guides="1" tooltips="1" connect="1" arrows="1" fold="1" page="1" pageScale="1" pageWidth="850" pageHeight="1100" math="0" shadow="0">
      <root>
        <mxCell id="0" />
        <mxCell id="1" parent="0" />
        <mxCell id="Q-1SjFvfvoM6aJF5I3k1-1" value="dispatch" style="html=1;verticalAlign=bottom;startArrow=circle;startFill=1;endArrow=open;startSize=6;endSize=8;rounded=0;entryX=0.5;entryY=0;entryDx=0;entryDy=0;" parent="1" target="Q-1SjFvfvoM6aJF5I3k1-2" edge="1">
          <mxGeometry x="0.2" width="80" relative="1" as="geometry">
            <mxPoint x="245" y="50" as="sourcePoint" />
            <mxPoint x="280" y="120" as="targetPoint" />
            <mxPoint as="offset" />
          </mxGeometry>
        </mxCell>
        <mxCell id="Q-1SjFvfvoM6aJF5I3k1-2" value="Ожидание выбора пользователя&lt;br&gt;" style="html=1;" parent="1" vertex="1">
          <mxGeometry x="150" y="120" width="190" height="50" as="geometry" />
        </mxCell>
        <mxCell id="Q-1SjFvfvoM6aJF5I3k1-25" value="выбрать процесс" style="html=1;" parent="1" vertex="1">
          <mxGeometry x="110" y="370" width="110" height="50" as="geometry" />
        </mxCell>
        <mxCell id="Q-1SjFvfvoM6aJF5I3k1-26" value="" style="endArrow=open;endFill=1;endSize=12;html=1;rounded=0;exitX=0.072;exitY=1.042;exitDx=0;exitDy=0;entryX=0.5;entryY=0;entryDx=0;entryDy=0;exitPerimeter=0;" parent="1" source="Q-1SjFvfvoM6aJF5I3k1-2" target="Q-1SjFvfvoM6aJF5I3k1-25" edge="1">
          <mxGeometry width="160" relative="1" as="geometry">
            <mxPoint x="132.5" y="269.9999999999999" as="sourcePoint" />
            <mxPoint x="130" y="190" as="targetPoint" />
          </mxGeometry>
        </mxCell>
        <mxCell id="Q-1SjFvfvoM6aJF5I3k1-31" value="Выбор службы" style="html=1;" parent="1" vertex="1">
          <mxGeometry x="180" y="310" width="110" height="50" as="geometry" />
        </mxCell>
        <mxCell id="Q-1SjFvfvoM6aJF5I3k1-34" value="&lt;div&gt;Данные о загруженности&lt;/div&gt;&lt;div&gt; системы&lt;/div&gt;" style="html=1;" parent="1" vertex="1">
          <mxGeometry x="250" y="220" width="150" height="70" as="geometry" />
        </mxCell>
        <mxCell id="Q-1SjFvfvoM6aJF5I3k1-35" value="" style="endArrow=open;endFill=1;endSize=12;html=1;rounded=0;exitX=0.895;exitY=1.042;exitDx=0;exitDy=0;entryX=0.5;entryY=0;entryDx=0;entryDy=0;exitPerimeter=0;" parent="1" target="Q-1SjFvfvoM6aJF5I3k1-34" edge="1" source="Q-1SjFvfvoM6aJF5I3k1-2">
          <mxGeometry width="160" relative="1" as="geometry">
            <mxPoint x="415.95000000000005" y="270" as="sourcePoint" />
            <mxPoint x="590" y="340" as="targetPoint" />
          </mxGeometry>
        </mxCell>
        <mxCell id="Q-1SjFvfvoM6aJF5I3k1-38" value="" style="edgeStyle=elbowEdgeStyle;elbow=horizontal;endArrow=classic;html=1;rounded=0;entryX=1;entryY=0;entryDx=0;entryDy=0;exitX=1;exitY=0.75;exitDx=0;exitDy=0;entryPerimeter=0;" parent="1" source="Q-1SjFvfvoM6aJF5I3k1-25" target="Q-1SjFvfvoM6aJF5I3k1-2" edge="1">
          <mxGeometry width="50" height="50" relative="1" as="geometry">
            <mxPoint x="40" y="580" as="sourcePoint" />
            <mxPoint x="220" y="160" as="targetPoint" />
            <Array as="points">
              <mxPoint x="670" y="200" />
              <mxPoint x="660" y="370" />
              <mxPoint x="-170" y="310" />
            </Array>
          </mxGeometry>
        </mxCell>
        <mxCell id="D1jeI6L4PFIO1TuhKTUI-9" value="&lt;div&gt;Остановить&lt;/div&gt;" style="edgeLabel;html=1;align=center;verticalAlign=middle;resizable=0;points=[];" vertex="1" connectable="0" parent="Q-1SjFvfvoM6aJF5I3k1-38">
          <mxGeometry x="-0.5601" y="-3" relative="1" as="geometry">
            <mxPoint x="-30" as="offset" />
          </mxGeometry>
        </mxCell>
        <mxCell id="Q-1SjFvfvoM6aJF5I3k1-39" value="" style="edgeStyle=elbowEdgeStyle;elbow=horizontal;endArrow=classic;html=1;rounded=0;entryX=1;entryY=0.25;entryDx=0;entryDy=0;exitX=1;exitY=0.25;exitDx=0;exitDy=0;" parent="1" source="Q-1SjFvfvoM6aJF5I3k1-25" target="Q-1SjFvfvoM6aJF5I3k1-2" edge="1">
          <mxGeometry width="50" height="50" relative="1" as="geometry">
            <mxPoint x="150" y="560" as="sourcePoint" />
            <mxPoint x="-190" y="340" as="targetPoint" />
            <Array as="points">
              <mxPoint x="650" y="380" />
              <mxPoint x="650" y="270" />
              <mxPoint x="460" y="500" />
              <mxPoint x="620" y="380" />
              <mxPoint x="630" y="350" />
              <mxPoint x="-270" y="250" />
            </Array>
          </mxGeometry>
        </mxCell>
        <mxCell id="D1jeI6L4PFIO1TuhKTUI-8" value="&lt;div&gt;Запустить&lt;/div&gt;" style="edgeLabel;html=1;align=center;verticalAlign=middle;resizable=0;points=[];" vertex="1" connectable="0" parent="Q-1SjFvfvoM6aJF5I3k1-39">
          <mxGeometry x="-0.5905" y="-5" relative="1" as="geometry">
            <mxPoint x="3" y="-7" as="offset" />
          </mxGeometry>
        </mxCell>
        <mxCell id="Q-1SjFvfvoM6aJF5I3k1-40" value="" style="edgeStyle=elbowEdgeStyle;elbow=horizontal;endArrow=classic;html=1;rounded=0;exitX=1;exitY=0.75;exitDx=0;exitDy=0;entryX=1;entryY=0.5;entryDx=0;entryDy=0;" parent="1" source="Q-1SjFvfvoM6aJF5I3k1-31" target="Q-1SjFvfvoM6aJF5I3k1-2" edge="1">
          <mxGeometry width="50" height="50" relative="1" as="geometry">
            <mxPoint x="289.9999999999998" y="485" as="sourcePoint" />
            <mxPoint x="340" y="133" as="targetPoint" />
            <Array as="points">
              <mxPoint x="610" y="270" />
              <mxPoint x="660" y="280" />
              <mxPoint x="-290" y="160" />
              <mxPoint x="-280" y="270" />
            </Array>
          </mxGeometry>
        </mxCell>
        <mxCell id="D1jeI6L4PFIO1TuhKTUI-12" value="&lt;div&gt;Остановить&lt;/div&gt;" style="edgeLabel;html=1;align=center;verticalAlign=middle;resizable=0;points=[];" vertex="1" connectable="0" parent="Q-1SjFvfvoM6aJF5I3k1-40">
          <mxGeometry x="-0.5769" y="4" relative="1" as="geometry">
            <mxPoint as="offset" />
          </mxGeometry>
        </mxCell>
        <mxCell id="Q-1SjFvfvoM6aJF5I3k1-42" value="" style="edgeStyle=elbowEdgeStyle;elbow=horizontal;endArrow=classic;html=1;rounded=0;exitX=1;exitY=0.25;exitDx=0;exitDy=0;" parent="1" source="Q-1SjFvfvoM6aJF5I3k1-31" edge="1">
          <mxGeometry width="50" height="50" relative="1" as="geometry">
            <mxPoint x="419.9999999999998" y="425" as="sourcePoint" />
            <mxPoint x="340" y="160" as="targetPoint" />
            <Array as="points">
              <mxPoint x="590" y="260" />
              <mxPoint x="650" y="260" />
            </Array>
          </mxGeometry>
        </mxCell>
        <mxCell id="D1jeI6L4PFIO1TuhKTUI-13" value="&lt;div&gt;Запустить&lt;/div&gt;" style="edgeLabel;html=1;align=center;verticalAlign=middle;resizable=0;points=[];" vertex="1" connectable="0" parent="Q-1SjFvfvoM6aJF5I3k1-42">
          <mxGeometry x="-0.5955" y="-3" relative="1" as="geometry">
            <mxPoint x="6" as="offset" />
          </mxGeometry>
        </mxCell>
        <mxCell id="Q-1SjFvfvoM6aJF5I3k1-43" value="" style="edgeStyle=elbowEdgeStyle;elbow=horizontal;endArrow=classic;html=1;rounded=0;exitX=1;exitY=0.5;exitDx=0;exitDy=0;" parent="1" source="Q-1SjFvfvoM6aJF5I3k1-34" edge="1">
          <mxGeometry width="50" height="50" relative="1" as="geometry">
            <mxPoint x="550" y="300" as="sourcePoint" />
            <mxPoint x="340" y="170" as="targetPoint" />
            <Array as="points">
              <mxPoint x="570" y="270" />
              <mxPoint x="640" y="230" />
            </Array>
          </mxGeometry>
        </mxCell>
        <mxCell id="D1jeI6L4PFIO1TuhKTUI-15" value="&lt;div&gt;Данные о нагружености системы&lt;/div&gt;" style="edgeLabel;html=1;align=center;verticalAlign=middle;resizable=0;points=[];" vertex="1" connectable="0" parent="Q-1SjFvfvoM6aJF5I3k1-43">
          <mxGeometry x="-0.5595" y="-3" relative="1" as="geometry">
            <mxPoint x="-22" y="12" as="offset" />
          </mxGeometry>
        </mxCell>
        <mxCell id="Q-1SjFvfvoM6aJF5I3k1-51" value="" style="endArrow=open;endFill=1;endSize=12;html=1;rounded=0;exitX=0;exitY=0.5;exitDx=0;exitDy=0;entryX=1;entryY=0.5;entryDx=0;entryDy=0;" parent="1" source="Q-1SjFvfvoM6aJF5I3k1-2" target="Q-1SjFvfvoM6aJF5I3k1-52" edge="1">
          <mxGeometry width="160" relative="1" as="geometry">
            <mxPoint x="80" y="160" as="sourcePoint" />
            <mxPoint x="130" y="145" as="targetPoint" />
          </mxGeometry>
        </mxCell>
        <mxCell id="Q-1SjFvfvoM6aJF5I3k1-52" value="" style="ellipse;html=1;shape=endState;fillColor=#000000;strokeColor=#000000;" parent="1" vertex="1">
          <mxGeometry x="30" y="130" width="30" height="30" as="geometry" />
        </mxCell>
        <mxCell id="D1jeI6L4PFIO1TuhKTUI-2" value="управление процессам" style="text;html=1;strokeColor=none;fillColor=none;align=center;verticalAlign=middle;whiteSpace=wrap;rounded=0;" vertex="1" parent="1">
          <mxGeometry x="90" y="270" width="60" height="30" as="geometry" />
        </mxCell>
        <mxCell id="D1jeI6L4PFIO1TuhKTUI-3" value="Управление сулжбами" style="text;html=1;strokeColor=none;fillColor=none;align=center;verticalAlign=middle;whiteSpace=wrap;rounded=0;" vertex="1" parent="1">
          <mxGeometry x="180" y="220" width="60" height="30" as="geometry" />
        </mxCell>
        <mxCell id="D1jeI6L4PFIO1TuhKTUI-4" value="Мониторинг" style="text;html=1;strokeColor=none;fillColor=none;align=center;verticalAlign=middle;whiteSpace=wrap;rounded=0;" vertex="1" parent="1">
          <mxGeometry x="330" y="180" width="60" height="30" as="geometry" />
        </mxCell>
        <mxCell id="D1jeI6L4PFIO1TuhKTUI-6" value="" style="endArrow=open;endFill=1;endSize=12;html=1;rounded=0;exitX=0.443;exitY=1.066;exitDx=0;exitDy=0;exitPerimeter=0;" edge="1" parent="1" source="Q-1SjFvfvoM6aJF5I3k1-2" target="Q-1SjFvfvoM6aJF5I3k1-31">
          <mxGeometry width="160" relative="1" as="geometry">
            <mxPoint x="173.67999999999984" y="182.0999999999999" as="sourcePoint" />
            <mxPoint x="65" y="380" as="targetPoint" />
          </mxGeometry>
        </mxCell>
      </root>
    </mxGraphModel>
  </diagram>
  <diagram id="fPKFlARngyHw_DB76YxL" name="Page-2">
    <mxGraphModel dx="1108" dy="478" grid="1" gridSize="10" guides="1" tooltips="1" connect="1" arrows="1" fold="1" page="1" pageScale="1" pageWidth="827" pageHeight="1169" math="0" shadow="0">
      <root>
        <mxCell id="9PMrPy1tGNu1VICdf0Lp-0" />
        <mxCell id="9PMrPy1tGNu1VICdf0Lp-1" parent="9PMrPy1tGNu1VICdf0Lp-0" />
        <mxCell id="9PMrPy1tGNu1VICdf0Lp-2" value="" style="shape=table;html=1;whiteSpace=wrap;startSize=0;container=1;collapsible=0;childLayout=tableLayout;shadow=0;" vertex="1" parent="9PMrPy1tGNu1VICdf0Lp-1">
          <mxGeometry x="200" y="140" width="270" height="150" as="geometry" />
        </mxCell>
        <mxCell id="9PMrPy1tGNu1VICdf0Lp-3" value="" style="shape=partialRectangle;html=1;whiteSpace=wrap;collapsible=0;dropTarget=0;pointerEvents=0;fillColor=none;top=0;left=0;bottom=0;right=0;points=[[0,0.5],[1,0.5]];portConstraint=eastwest;" vertex="1" parent="9PMrPy1tGNu1VICdf0Lp-2">
          <mxGeometry width="270" height="20" as="geometry" />
        </mxCell>
        <mxCell id="9PMrPy1tGNu1VICdf0Lp-4" value="" style="shape=partialRectangle;html=1;whiteSpace=wrap;connectable=0;fillColor=none;top=0;left=0;bottom=0;right=0;overflow=hidden;pointerEvents=1;" vertex="1" parent="9PMrPy1tGNu1VICdf0Lp-3">
          <mxGeometry width="90" height="20" as="geometry">
            <mxRectangle width="90" height="20" as="alternateBounds" />
          </mxGeometry>
        </mxCell>
        <mxCell id="9PMrPy1tGNu1VICdf0Lp-5" value="" style="shape=partialRectangle;html=1;whiteSpace=wrap;connectable=0;fillColor=none;top=0;left=0;bottom=0;right=0;overflow=hidden;pointerEvents=1;" vertex="1" parent="9PMrPy1tGNu1VICdf0Lp-3">
          <mxGeometry x="90" width="90" height="20" as="geometry">
            <mxRectangle width="90" height="20" as="alternateBounds" />
          </mxGeometry>
        </mxCell>
        <mxCell id="9PMrPy1tGNu1VICdf0Lp-6" value="" style="shape=partialRectangle;html=1;whiteSpace=wrap;connectable=0;fillColor=none;top=0;left=0;bottom=0;right=0;overflow=hidden;pointerEvents=1;" vertex="1" parent="9PMrPy1tGNu1VICdf0Lp-3">
          <mxGeometry x="180" width="90" height="20" as="geometry">
            <mxRectangle width="90" height="20" as="alternateBounds" />
          </mxGeometry>
        </mxCell>
        <mxCell id="9PMrPy1tGNu1VICdf0Lp-11" value="" style="shape=partialRectangle;html=1;whiteSpace=wrap;collapsible=0;dropTarget=0;pointerEvents=0;fillColor=none;top=0;left=0;bottom=0;right=0;points=[[0,0.5],[1,0.5]];portConstraint=eastwest;" vertex="1" parent="9PMrPy1tGNu1VICdf0Lp-2">
          <mxGeometry y="20" width="270" height="130" as="geometry" />
        </mxCell>
        <mxCell id="9PMrPy1tGNu1VICdf0Lp-12" value="" style="shape=partialRectangle;html=1;whiteSpace=wrap;connectable=0;fillColor=none;top=0;left=0;bottom=0;right=0;overflow=hidden;pointerEvents=1;" vertex="1" parent="9PMrPy1tGNu1VICdf0Lp-11">
          <mxGeometry width="90" height="130" as="geometry">
            <mxRectangle width="90" height="130" as="alternateBounds" />
          </mxGeometry>
        </mxCell>
        <mxCell id="9PMrPy1tGNu1VICdf0Lp-13" value="" style="shape=partialRectangle;html=1;whiteSpace=wrap;connectable=0;fillColor=none;top=0;left=0;bottom=0;right=0;overflow=hidden;pointerEvents=1;" vertex="1" parent="9PMrPy1tGNu1VICdf0Lp-11">
          <mxGeometry x="90" width="90" height="130" as="geometry">
            <mxRectangle width="90" height="130" as="alternateBounds" />
          </mxGeometry>
        </mxCell>
        <mxCell id="9PMrPy1tGNu1VICdf0Lp-14" value="" style="shape=partialRectangle;html=1;whiteSpace=wrap;connectable=0;fillColor=none;top=0;left=0;bottom=0;right=0;overflow=hidden;pointerEvents=1;" vertex="1" parent="9PMrPy1tGNu1VICdf0Lp-11">
          <mxGeometry x="180" width="90" height="130" as="geometry">
            <mxRectangle width="90" height="130" as="alternateBounds" />
          </mxGeometry>
        </mxCell>
        <mxCell id="9PMrPy1tGNu1VICdf0Lp-15" value="&lt;table border=&quot;0&quot; width=&quot;100%&quot; height=&quot;100%&quot; style=&quot;width:100%;height:100%;border-collapse:collapse;&quot;&gt;&lt;tr&gt;&lt;td align=&quot;center&quot;&gt;Value 1&lt;/td&gt;&lt;td align=&quot;center&quot;&gt;Value 2&lt;/td&gt;&lt;td align=&quot;center&quot;&gt;Value 3&lt;/td&gt;&lt;/tr&gt;&lt;tr&gt;&lt;td align=&quot;center&quot;&gt;Value 4&lt;/td&gt;&lt;td align=&quot;center&quot;&gt;Value 5&lt;/td&gt;&lt;td align=&quot;center&quot;&gt;Value 6&lt;/td&gt;&lt;/tr&gt;&lt;tr&gt;&lt;td align=&quot;center&quot;&gt;Value 7&lt;/td&gt;&lt;td align=&quot;center&quot;&gt;Value 8&lt;/td&gt;&lt;td align=&quot;center&quot;&gt;Value 9&lt;/td&gt;&lt;/tr&gt;&lt;/table&gt;" style="text;html=1;strokeColor=#c0c0c0;fillColor=none;overflow=fill;" vertex="1" parent="9PMrPy1tGNu1VICdf0Lp-1">
          <mxGeometry x="560" y="250" width="180" height="140" as="geometry" />
        </mxCell>
        <mxCell id="9PMrPy1tGNu1VICdf0Lp-26" value="Pool" style="swimlane;html=1;childLayout=stackLayout;resizeParent=1;resizeParentMax=0;startSize=20;shadow=0;" vertex="1" parent="9PMrPy1tGNu1VICdf0Lp-1">
          <mxGeometry x="170" y="360" width="670" height="610" as="geometry" />
        </mxCell>
        <mxCell id="9PMrPy1tGNu1VICdf0Lp-27" value="Пользователь" style="swimlane;html=1;startSize=20;shadow=0;" vertex="1" parent="9PMrPy1tGNu1VICdf0Lp-26">
          <mxGeometry y="20" width="250" height="590" as="geometry" />
        </mxCell>
        <mxCell id="9PMrPy1tGNu1VICdf0Lp-32" value="dispatch" style="html=1;verticalAlign=bottom;startArrow=oval;startFill=1;endArrow=block;startSize=8;rounded=0;" edge="1" parent="9PMrPy1tGNu1VICdf0Lp-27">
          <mxGeometry width="60" relative="1" as="geometry">
            <mxPoint x="104.5" y="40" as="sourcePoint" />
            <mxPoint x="104.5" y="80" as="targetPoint" />
          </mxGeometry>
        </mxCell>
        <mxCell id="9PMrPy1tGNu1VICdf0Lp-34" value="Выбрать действие" style="strokeWidth=2;html=1;shape=mxgraph.flowchart.terminator;whiteSpace=wrap;shadow=0;" vertex="1" parent="9PMrPy1tGNu1VICdf0Lp-27">
          <mxGeometry x="60" y="80" width="95" height="30" as="geometry" />
        </mxCell>
        <mxCell id="9PMrPy1tGNu1VICdf0Lp-37" value="" style="endArrow=classic;html=1;rounded=0;exitX=0.5;exitY=1;exitDx=0;exitDy=0;exitPerimeter=0;" edge="1" parent="9PMrPy1tGNu1VICdf0Lp-27" source="9PMrPy1tGNu1VICdf0Lp-34">
          <mxGeometry width="50" height="50" relative="1" as="geometry">
            <mxPoint x="100" y="210" as="sourcePoint" />
            <mxPoint x="108" y="150" as="targetPoint" />
          </mxGeometry>
        </mxCell>
        <mxCell id="9PMrPy1tGNu1VICdf0Lp-38" value="" style="endArrow=none;html=1;rounded=0;" edge="1" parent="9PMrPy1tGNu1VICdf0Lp-27">
          <mxGeometry width="50" height="50" relative="1" as="geometry">
            <mxPoint x="40" y="150" as="sourcePoint" />
            <mxPoint x="200" y="150" as="targetPoint" />
          </mxGeometry>
        </mxCell>
        <mxCell id="9PMrPy1tGNu1VICdf0Lp-39" value="" style="endArrow=classic;html=1;rounded=0;" edge="1" parent="9PMrPy1tGNu1VICdf0Lp-27">
          <mxGeometry width="50" height="50" relative="1" as="geometry">
            <mxPoint x="67" y="150" as="sourcePoint" />
            <mxPoint x="67" y="170" as="targetPoint" />
          </mxGeometry>
        </mxCell>
        <mxCell id="9PMrPy1tGNu1VICdf0Lp-40" value="" style="endArrow=classic;html=1;rounded=0;exitX=0.5;exitY=1;exitDx=0;exitDy=0;exitPerimeter=0;entryX=0.5;entryY=0;entryDx=0;entryDy=0;entryPerimeter=0;" edge="1" parent="9PMrPy1tGNu1VICdf0Lp-27" target="9PMrPy1tGNu1VICdf0Lp-43">
          <mxGeometry width="50" height="50" relative="1" as="geometry">
            <mxPoint x="127" y="150" as="sourcePoint" />
            <mxPoint x="127" y="200" as="targetPoint" />
          </mxGeometry>
        </mxCell>
        <mxCell id="9PMrPy1tGNu1VICdf0Lp-42" value="Управление службами" style="strokeWidth=2;html=1;shape=mxgraph.flowchart.terminator;whiteSpace=wrap;shadow=0;" vertex="1" parent="9PMrPy1tGNu1VICdf0Lp-27">
          <mxGeometry x="20" y="170" width="95" height="30" as="geometry" />
        </mxCell>
        <mxCell id="9PMrPy1tGNu1VICdf0Lp-43" value="&lt;div&gt;Управление процессами&lt;br&gt;&lt;/div&gt;" style="strokeWidth=2;html=1;shape=mxgraph.flowchart.terminator;whiteSpace=wrap;shadow=0;" vertex="1" parent="9PMrPy1tGNu1VICdf0Lp-27">
          <mxGeometry x="80" y="205" width="95" height="30" as="geometry" />
        </mxCell>
        <mxCell id="9PMrPy1tGNu1VICdf0Lp-46" value="" style="endArrow=classic;html=1;rounded=0;" edge="1" parent="9PMrPy1tGNu1VICdf0Lp-27">
          <mxGeometry width="50" height="50" relative="1" as="geometry">
            <mxPoint x="184.5" y="150" as="sourcePoint" />
            <mxPoint x="185" y="170" as="targetPoint" />
          </mxGeometry>
        </mxCell>
        <mxCell id="9PMrPy1tGNu1VICdf0Lp-47" value="Мониторинг" style="strokeWidth=2;html=1;shape=mxgraph.flowchart.terminator;whiteSpace=wrap;shadow=0;" vertex="1" parent="9PMrPy1tGNu1VICdf0Lp-27">
          <mxGeometry x="137.5" y="170" width="95" height="30" as="geometry" />
        </mxCell>
        <mxCell id="9PMrPy1tGNu1VICdf0Lp-49" value="" style="edgeStyle=elbowEdgeStyle;elbow=vertical;endArrow=classic;html=1;rounded=0;exitX=0.379;exitY=0.967;exitDx=0;exitDy=0;exitPerimeter=0;" edge="1" parent="9PMrPy1tGNu1VICdf0Lp-27">
          <mxGeometry width="50" height="50" relative="1" as="geometry">
            <mxPoint x="55.99500000000011" y="180" as="sourcePoint" />
            <mxPoint x="319.99" y="330.99" as="targetPoint" />
            <Array as="points">
              <mxPoint x="270.98" y="281.98" />
            </Array>
          </mxGeometry>
        </mxCell>
        <mxCell id="9PMrPy1tGNu1VICdf0Lp-78" value="Продолжить?" style="rhombus;whiteSpace=wrap;html=1;shadow=0;" vertex="1" parent="9PMrPy1tGNu1VICdf0Lp-27">
          <mxGeometry x="84" y="450" width="80" height="50" as="geometry" />
        </mxCell>
        <mxCell id="9PMrPy1tGNu1VICdf0Lp-80" value="" style="edgeStyle=elbowEdgeStyle;elbow=vertical;endArrow=classic;html=1;rounded=0;exitX=0;exitY=0.5;exitDx=0;exitDy=0;entryX=0;entryY=0.5;entryDx=0;entryDy=0;entryPerimeter=0;" edge="1" parent="9PMrPy1tGNu1VICdf0Lp-27" source="9PMrPy1tGNu1VICdf0Lp-78" target="9PMrPy1tGNu1VICdf0Lp-34">
          <mxGeometry width="50" height="50" relative="1" as="geometry">
            <mxPoint x="100" y="570" as="sourcePoint" />
            <mxPoint x="150" y="520" as="targetPoint" />
            <Array as="points">
              <mxPoint x="10" y="330" />
              <mxPoint x="60" y="445" />
            </Array>
          </mxGeometry>
        </mxCell>
        <mxCell id="9PMrPy1tGNu1VICdf0Lp-81" value="Да" style="edgeLabel;html=1;align=center;verticalAlign=middle;resizable=0;points=[];" vertex="1" connectable="0" parent="9PMrPy1tGNu1VICdf0Lp-80">
          <mxGeometry x="-0.8553" y="-1" relative="1" as="geometry">
            <mxPoint as="offset" />
          </mxGeometry>
        </mxCell>
        <mxCell id="9PMrPy1tGNu1VICdf0Lp-82" value="" style="endArrow=classic;html=1;rounded=0;exitX=0.5;exitY=1;exitDx=0;exitDy=0;" edge="1" parent="9PMrPy1tGNu1VICdf0Lp-27" source="9PMrPy1tGNu1VICdf0Lp-78">
          <mxGeometry width="50" height="50" relative="1" as="geometry">
            <mxPoint x="114" y="580" as="sourcePoint" />
            <mxPoint x="124" y="540" as="targetPoint" />
          </mxGeometry>
        </mxCell>
        <mxCell id="9PMrPy1tGNu1VICdf0Lp-83" value="" style="endArrow=none;html=1;rounded=0;" edge="1" parent="9PMrPy1tGNu1VICdf0Lp-27">
          <mxGeometry width="50" height="50" relative="1" as="geometry">
            <mxPoint x="54" y="430" as="sourcePoint" />
            <mxPoint x="194" y="430" as="targetPoint" />
          </mxGeometry>
        </mxCell>
        <mxCell id="9PMrPy1tGNu1VICdf0Lp-84" value="" style="endArrow=classic;html=1;rounded=0;entryX=0.5;entryY=0;entryDx=0;entryDy=0;" edge="1" parent="9PMrPy1tGNu1VICdf0Lp-27" target="9PMrPy1tGNu1VICdf0Lp-78">
          <mxGeometry width="50" height="50" relative="1" as="geometry">
            <mxPoint x="124" y="430" as="sourcePoint" />
            <mxPoint x="164" y="430" as="targetPoint" />
          </mxGeometry>
        </mxCell>
        <mxCell id="9PMrPy1tGNu1VICdf0Lp-94" value="" style="ellipse;html=1;shape=endState;fillColor=#000000;strokeColor=#000000;shadow=0;" vertex="1" parent="9PMrPy1tGNu1VICdf0Lp-27">
          <mxGeometry x="110" y="540" width="30" height="30" as="geometry" />
        </mxCell>
        <mxCell id="9PMrPy1tGNu1VICdf0Lp-28" value="Программа" style="swimlane;html=1;startSize=20;shadow=0;" vertex="1" parent="9PMrPy1tGNu1VICdf0Lp-26">
          <mxGeometry x="250" y="20" width="420" height="590" as="geometry">
            <mxRectangle x="120" y="20" width="30" height="460" as="alternateBounds" />
          </mxGeometry>
        </mxCell>
        <mxCell id="9PMrPy1tGNu1VICdf0Lp-52" value="" style="endArrow=none;html=1;rounded=0;" edge="1" parent="9PMrPy1tGNu1VICdf0Lp-28">
          <mxGeometry width="50" height="50" relative="1" as="geometry">
            <mxPoint x="20.979999999999997" y="330.99" as="sourcePoint" />
            <mxPoint x="160.98000000000002" y="330.99" as="targetPoint" />
          </mxGeometry>
        </mxCell>
        <mxCell id="9PMrPy1tGNu1VICdf0Lp-55" value="" style="endArrow=classic;html=1;rounded=0;entryX=0.275;entryY=0;entryDx=0;entryDy=0;entryPerimeter=0;" edge="1" parent="9PMrPy1tGNu1VICdf0Lp-28" target="9PMrPy1tGNu1VICdf0Lp-57">
          <mxGeometry width="50" height="50" relative="1" as="geometry">
            <mxPoint x="32.99" y="330.99" as="sourcePoint" />
            <mxPoint x="30.979999999999997" y="360.99" as="targetPoint" />
          </mxGeometry>
        </mxCell>
        <mxCell id="9PMrPy1tGNu1VICdf0Lp-56" value="" style="endArrow=classic;html=1;rounded=0;entryX=0.5;entryY=0;entryDx=0;entryDy=0;entryPerimeter=0;" edge="1" parent="9PMrPy1tGNu1VICdf0Lp-28" target="9PMrPy1tGNu1VICdf0Lp-58">
          <mxGeometry width="50" height="50" relative="1" as="geometry">
            <mxPoint x="140.48000000000002" y="330.99" as="sourcePoint" />
            <mxPoint x="140.48000000000002" y="360.99" as="targetPoint" />
          </mxGeometry>
        </mxCell>
        <mxCell id="9PMrPy1tGNu1VICdf0Lp-57" value="Остановить" style="strokeWidth=2;html=1;shape=mxgraph.flowchart.terminator;whiteSpace=wrap;shadow=0;" vertex="1" parent="9PMrPy1tGNu1VICdf0Lp-28">
          <mxGeometry x="10.98" y="350.99" width="80" height="20" as="geometry" />
        </mxCell>
        <mxCell id="9PMrPy1tGNu1VICdf0Lp-58" value="Запустить" style="strokeWidth=2;html=1;shape=mxgraph.flowchart.terminator;whiteSpace=wrap;shadow=0;" vertex="1" parent="9PMrPy1tGNu1VICdf0Lp-28">
          <mxGeometry x="100.97999999999999" y="350.99" width="80" height="20" as="geometry" />
        </mxCell>
        <mxCell id="9PMrPy1tGNu1VICdf0Lp-59" value="" style="endArrow=none;html=1;rounded=0;" edge="1" parent="9PMrPy1tGNu1VICdf0Lp-28">
          <mxGeometry width="50" height="50" relative="1" as="geometry">
            <mxPoint x="176.01" y="280" as="sourcePoint" />
            <mxPoint x="316.01" y="280" as="targetPoint" />
          </mxGeometry>
        </mxCell>
        <mxCell id="9PMrPy1tGNu1VICdf0Lp-60" value="" style="endArrow=classic;html=1;rounded=0;" edge="1" parent="9PMrPy1tGNu1VICdf0Lp-28">
          <mxGeometry width="50" height="50" relative="1" as="geometry">
            <mxPoint x="186.01" y="280" as="sourcePoint" />
            <mxPoint x="186.01" y="310" as="targetPoint" />
          </mxGeometry>
        </mxCell>
        <mxCell id="9PMrPy1tGNu1VICdf0Lp-61" value="" style="endArrow=classic;html=1;rounded=0;" edge="1" parent="9PMrPy1tGNu1VICdf0Lp-28">
          <mxGeometry width="50" height="50" relative="1" as="geometry">
            <mxPoint x="295.51" y="280" as="sourcePoint" />
            <mxPoint x="295.51" y="310" as="targetPoint" />
          </mxGeometry>
        </mxCell>
        <mxCell id="9PMrPy1tGNu1VICdf0Lp-62" value="Остановить" style="strokeWidth=2;html=1;shape=mxgraph.flowchart.terminator;whiteSpace=wrap;shadow=0;" vertex="1" parent="9PMrPy1tGNu1VICdf0Lp-28">
          <mxGeometry x="166.01" y="310" width="80" height="20" as="geometry" />
        </mxCell>
        <mxCell id="9PMrPy1tGNu1VICdf0Lp-63" value="Запустить" style="strokeWidth=2;html=1;shape=mxgraph.flowchart.terminator;whiteSpace=wrap;shadow=0;" vertex="1" parent="9PMrPy1tGNu1VICdf0Lp-28">
          <mxGeometry x="256.01" y="310" width="80" height="20" as="geometry" />
        </mxCell>
        <mxCell id="9PMrPy1tGNu1VICdf0Lp-64" value="" style="edgeStyle=elbowEdgeStyle;elbow=vertical;endArrow=classic;html=1;rounded=0;" edge="1" parent="9PMrPy1tGNu1VICdf0Lp-28">
          <mxGeometry width="50" height="50" relative="1" as="geometry">
            <mxPoint x="-120" y="231" as="sourcePoint" />
            <mxPoint x="230" y="280" as="targetPoint" />
            <Array as="points">
              <mxPoint y="260" />
            </Array>
          </mxGeometry>
        </mxCell>
        <mxCell id="9PMrPy1tGNu1VICdf0Lp-77" value="Выдать состояние системы" style="strokeWidth=2;html=1;shape=mxgraph.flowchart.terminator;whiteSpace=wrap;shadow=0;" vertex="1" parent="9PMrPy1tGNu1VICdf0Lp-28">
          <mxGeometry x="270" y="230" width="136.01" height="30" as="geometry" />
        </mxCell>
        <mxCell id="9PMrPy1tGNu1VICdf0Lp-86" value="" style="edgeStyle=elbowEdgeStyle;elbow=vertical;endArrow=classic;html=1;rounded=0;exitX=0.5;exitY=1;exitDx=0;exitDy=0;exitPerimeter=0;" edge="1" parent="9PMrPy1tGNu1VICdf0Lp-28" source="9PMrPy1tGNu1VICdf0Lp-57">
          <mxGeometry width="50" height="50" relative="1" as="geometry">
            <mxPoint x="10" y="390" as="sourcePoint" />
            <mxPoint x="-180" y="430" as="targetPoint" />
            <Array as="points">
              <mxPoint x="-80" y="380" />
            </Array>
          </mxGeometry>
        </mxCell>
        <mxCell id="9PMrPy1tGNu1VICdf0Lp-88" value="" style="edgeStyle=elbowEdgeStyle;elbow=vertical;endArrow=classic;html=1;rounded=0;exitX=0.5;exitY=1;exitDx=0;exitDy=0;exitPerimeter=0;" edge="1" parent="9PMrPy1tGNu1VICdf0Lp-28" source="9PMrPy1tGNu1VICdf0Lp-58">
          <mxGeometry width="50" height="50" relative="1" as="geometry">
            <mxPoint x="130.99" y="400" as="sourcePoint" />
            <mxPoint x="-160" y="430" as="targetPoint" />
            <Array as="points">
              <mxPoint x="80" y="390" />
              <mxPoint x="-10" y="400" />
              <mxPoint x="-10" y="390" />
            </Array>
          </mxGeometry>
        </mxCell>
        <mxCell id="9PMrPy1tGNu1VICdf0Lp-90" value="" style="edgeStyle=elbowEdgeStyle;elbow=vertical;endArrow=classic;html=1;rounded=0;exitX=0.5;exitY=1;exitDx=0;exitDy=0;exitPerimeter=0;" edge="1" parent="9PMrPy1tGNu1VICdf0Lp-28">
          <mxGeometry width="50" height="50" relative="1" as="geometry">
            <mxPoint x="296.01" y="320" as="sourcePoint" />
            <mxPoint x="-120" y="430" as="targetPoint" />
            <Array as="points">
              <mxPoint x="110" y="410" />
            </Array>
          </mxGeometry>
        </mxCell>
        <mxCell id="9PMrPy1tGNu1VICdf0Lp-93" value="" style="edgeStyle=elbowEdgeStyle;elbow=vertical;endArrow=classic;html=1;rounded=0;exitX=0.573;exitY=1.067;exitDx=0;exitDy=0;exitPerimeter=0;" edge="1" parent="9PMrPy1tGNu1VICdf0Lp-28" source="9PMrPy1tGNu1VICdf0Lp-77">
          <mxGeometry width="50" height="50" relative="1" as="geometry">
            <mxPoint x="210" y="490" as="sourcePoint" />
            <mxPoint x="-100" y="430" as="targetPoint" />
            <Array as="points">
              <mxPoint x="110" y="420" />
            </Array>
          </mxGeometry>
        </mxCell>
        <mxCell id="9PMrPy1tGNu1VICdf0Lp-75" value="" style="edgeStyle=elbowEdgeStyle;elbow=vertical;endArrow=classic;html=1;rounded=0;exitX=0.5;exitY=1;exitDx=0;exitDy=0;exitPerimeter=0;entryX=0.5;entryY=0;entryDx=0;entryDy=0;entryPerimeter=0;" edge="1" parent="9PMrPy1tGNu1VICdf0Lp-26" source="9PMrPy1tGNu1VICdf0Lp-47" target="9PMrPy1tGNu1VICdf0Lp-77">
          <mxGeometry width="50" height="50" relative="1" as="geometry">
            <mxPoint x="210" y="190" as="sourcePoint" />
            <mxPoint x="450" y="250" as="targetPoint" />
            <Array as="points">
              <mxPoint x="280" y="230" />
              <mxPoint x="330" y="219" />
            </Array>
          </mxGeometry>
        </mxCell>
        <mxCell id="9PMrPy1tGNu1VICdf0Lp-89" value="" style="edgeStyle=elbowEdgeStyle;elbow=vertical;endArrow=classic;html=1;rounded=0;exitX=0.5;exitY=1;exitDx=0;exitDy=0;exitPerimeter=0;" edge="1" parent="9PMrPy1tGNu1VICdf0Lp-1" source="9PMrPy1tGNu1VICdf0Lp-62">
          <mxGeometry width="50" height="50" relative="1" as="geometry">
            <mxPoint x="570.99" y="780" as="sourcePoint" />
            <mxPoint x="280" y="810" as="targetPoint" />
            <Array as="points">
              <mxPoint x="480" y="780" />
              <mxPoint x="460" y="790" />
            </Array>
          </mxGeometry>
        </mxCell>
      </root>
    </mxGraphModel>
  </diagram>
</mxfile>
